{
  "accessors": [
    {
      "bufferView": 2,
      "componentType": 5126,
      "count": 515,
      "max": [
        15.036706924438477,
        39.417587280273438,
        50
      ],
      "min": [
        -80.366073608398438,
        -5.07659912109375,
        -25.450435638427734
      ],
      "type": "VEC3"
    },
    {
      "bufferView": 2,
      "byteOffset": 6180,
      "componentType": 5126,
      "count": 515,
      "max": [
        1,
        0.9034150242805481,
        1
      ],
      "min": [
        -1,
        -1,
        -1
      ],
      "type": "VEC3"
    },
    {
      "bufferView": 3,
      "componentType": 5126,
      "count": 515,
      "max": [
        1,
        1,
        0,
        1
      ],
      "min": [
        -1,
        -1,
        0,
        -1
      ],
      "type": "VEC4"
    },
    {
      "bufferView": 0,
      "componentType": 5125,
      "count": 972,
      "max": [
        514
      ],
      "min": [
        0
      ],
      "type": "SCALAR"
    },
    {
      "bufferView": 2,
      "byteOffset": 12360,
      "componentType": 5126,
      "count": 39,
      "max": [
        12.169998168945312,
        -5,
        49
      ],
      "min": [
        -77.492630004882812,
        -5.07659912109375,
        2.766273021697998
      ],
      "type": "VEC3"
    },
    {
      "bufferView": 2,
      "byteOffset": 12828,
      "componentType": 5126,
      "count": 39,
      "max": [
        0.0021807365119457245,
        -0.99997323751449585,
        7.8699580626562238e-05
      ],
      "min": [
        -0.0028236978687345982,
        -1,
        -0.0073265954852104187
      ],
      "type": "VEC3"
    },
    {
      "bufferView": 3,
      "byteOffset": 8240,
      "componentType": 5126,
      "count": 39,
      "max": [
        1,
        0.002180769108235836,
        3.5982029658043757e-06,
        1
      ],
      "min": [
        0.99999600648880005,
        -0.0028237106744199991,
        -3.5982043300464284e-06,
        1
      ],
      "type": "VEC4"
    },
    {
      "bufferView": 1,
      "componentType": 5126,
      "count": 39,
      "max": [
        0.97552990913391113,
        1.0029776096343994
      ],
      "min": [
        0.0030379127711057663,
        0.12932498753070831
      ],
      "type": "VEC2"
    },
    {
      "bufferView": 0,
      "byteOffset": 3888,
      "componentType": 5125,
      "count": 144,
      "max": [
        38
      ],
      "min": [
        0
      ],
      "type": "SCALAR"
    },
    {
      "bufferView": 2,
      "byteOffset": 13296,
      "componentType": 5126,
      "count": 284,
      "max": [
        15.043438911437988,
        39.418373107910156,
        50
      ],
      "min": [
        -78.492630004882812,
        -3.3540630340576172,
        -25.450435638427734
      ],
      "type": "VEC3"
    },
    {
      "bufferView": 2,
      "byteOffset": 16704,
      "componentType": 5126,
      "count": 284,
      "max": [
        1,
        0.95916575193405151,
        0.97412794828414917
      ],
      "min": [
        -1,
        -0.87369853258132935,
        -0.99958133697509766
      ],
      "type": "VEC3"
    },
    {
      "bufferView": 3,
      "byteOffset": 8864,
      "componentType": 5126,
      "count": 284,
      "max": [
        0.96595442295074463,
        1,
        0.0064926664344966412,
        1
      ],
      "min": [
        -0.96595436334609985,
        -0.31622776389122009,
        -0.0066939685493707657,
        -1
      ],
      "type": "VEC4"
    },
    {
      "bufferView": 0,
      "byteOffset": 4464,
      "componentType": 5125,
      "count": 474,
      "max": [
        283
      ],
      "min": [
        0
      ],
      "type": "SCALAR"
    },
    {
      "bufferView": 2,
      "byteOffset": 20112,
      "componentType": 5126,
      "count": 32,
      "max": [
        -19.773605346679688,
        36.828826904296875,
        39.551280975341797
      ],
      "min": [
        -45.549026489257812,
        20.738857269287109,
        35
      ],
      "type": "VEC3"
    },
    {
      "bufferView": 2,
      "byteOffset": 20496,
      "componentType": 5126,
      "count": 32,
      "max": [
        0.14172419905662537,
        -0.17589679360389709,
        0.97546851634979248
      ],
      "min": [
        -0.14172419905662537,
        -0.27770125865936279,
        0.95539313554763794
      ],
      "type": "VEC3"
    },
    {
      "bufferView": 3,
      "byteOffset": 13408,
      "componentType": 5126,
      "count": 32,
      "max": [
        0,
        0,
        0,
        1
      ],
      "min": [
        0,
        0,
        0,
        1
      ],
      "type": "VEC4"
    },
    {
      "bufferView": 0,
      "byteOffset": 6360,
      "componentType": 5125,
      "count": 48,
      "max": [
        31
      ],
      "min": [
        0
      ],
      "type": "SCALAR"
    }
  ],
  "asset": {
    "extras": {
      "author": "Freddy drabble (https://sketchfab.com/freddrabzzzLDE)",
      "license": "CC-BY-4.0 (http://creativecommons.org/licenses/by/4.0/)",
      "source": "https://sketchfab.com/models/ea94165c8f074ae4840b1217ad5f11d2",
      "title": "Alienware Monitor aw25"
    },
    "generator": "Sketchfab-3.28.7",
    "version": "2.0"
  },
  "bufferViews": [
    {
      "buffer": 0,
      "byteLength": 6552,
      "byteOffset": 0,
      "name": "floatBufferViews",
      "target": 34963
    },
    {
      "buffer": 0,
      "byteLength": 312,
      "byteOffset": 6552,
      "byteStride": 8,
      "name": "floatBufferViews",
      "target": 34962
    },
    {
      "buffer": 0,
      "byteLength": 20880,
      "byteOffset": 6864,
      "byteStride": 12,
      "name": "floatBufferViews",
      "target": 34962
    },
    {
      "buffer": 0,
      "byteLength": 13920,
      "byteOffset": 27744,
      "byteStride": 16,
      "name": "floatBufferViews",
      "target": 34962
    }
  ],
  "buffers": [
    {
      "byteLength": 41664,
      "uri": "scene.bin"
    }
  ],
  "images": [
    {
      "uri": "textures/Material_83_baseColor.png"
    },
    {
      "uri": "textures/Material_83_emissive.png"
    }
  ],
  "materials": [
    {
      "doubleSided": true,
      "emissiveFactor": [
        0,
        0,
        0
      ],
      "name": "02_-_Default",
      "pbrMetallicRoughness": {
        "baseColorFactor": [
          0,
          0,
          0,
          1
        ],
        "metallicFactor": 0.60537347559999999,
        "roughnessFactor": 0.71169969509999997
      }
    },
    {
      "doubleSided": true,
      "emissiveFactor": [
        1,
        1,
        1
      ],
      "emissiveTexture": {
        "index": 1,
        "texCoord": 0
      },
      "name": "Material_83",
      "pbrMetallicRoughness": {
        "baseColorFactor": [
          1,
          1,
          1,
          1
        ],
        "baseColorTexture": {
          "index": 0,
          "texCoord": 0
        },
        "metallicFactor": 0,
        "roughnessFactor": 0.89297135959999996
      }
    },
    {
      "doubleSided": true,
      "emissiveFactor": [
        0,
        0,
        0
      ],
      "name": "03_-_Default",
      "pbrMetallicRoughness": {
        "baseColorFactor": [
          0.26274500000000001,
          0.26274500000000001,
          0.26274500000000001,
          1
        ],
        "metallicFactor": 0.59317835370000005,
        "roughnessFactor": 0.15682164629999995
      }
    },
    {
      "doubleSided": true,
      "emissiveFactor": [
        0,
        0,
        0
      ],
      "name": "13_-_Default",
      "pbrMetallicRoughness": {
        "baseColorFactor": [
          0,
          0,
          0,
          1
        ],
        "metallicFactor": 0,
        "roughnessFactor": 0
      }
    }
  ],
  "meshes": [
    {
      "name": "Box001_02 - Default_0",
      "primitives": [
        {
          "attributes": {
            "NORMAL": 1,
            "POSITION": 0,
            "TANGENT": 2
          },
          "indices": 3,
          "material": 0,
          "mode": 4
        }
      ]
    },
    {
      "name": "Box001_Material #83_0",
      "primitives": [
        {
          "attributes": {
            "NORMAL": 5,
            "POSITION": 4,
            "TANGENT": 6,
            "TEXCOORD_0": 7
          },
          "indices": 8,
          "material": 1,
          "mode": 4
        }
      ]
    },
    {
      "name": "Box001_03 - Default_0",
      "primitives": [
        {
          "attributes": {
            "NORMAL": 10,
            "POSITION": 9,
            "TANGENT": 11
          },
          "indices": 12,
          "material": 2,
          "mode": 4
        }
      ]
    },
    {
      "name": "Box001_13 - Default_0",
      "primitives": [
        {
          "attributes": {
            "NORMAL": 14,
            "POSITION": 13,
            "TANGENT": 15
          },
          "indices": 16,
          "material": 3,
          "mode": 4
        }
      ]
    }
  ],
  "nodes": [
    {
      "children": [
        1
      ],
      "name": "RootNode (gltf orientation matrix)",
      "rotation": [
        -0.70710678118654746,
        -0,
        -0,
        0.70710678118654757
      ]
    },
    {
      "children": [
        2
      ],
      "name": "RootNode (model correction matrix)"
    },
    {
      "children": [
        3
      ],
      "matrix": [
        1,
        0,
        0,
        0,
        0,
        0,
        1,
        0,
        0,
        -1,
        0,
        0,
        0,
        0,
        0,
        1
      ],
      "name": "6e0f58d0ff414d56b2af641144085934.fbx"
    },
    {
      "children": [
        4
      ],
      "name": "RootNode"
    },
    {
      "children": [
        5,
        6,
        7,
        8
      ],
      "matrix": [
        1,
        0,
        0,
        0,
        0,
        2.2204460492503131e-16,
        -1,
        0,
        0,
        1,
        2.2204460492503131e-16,
        0,
        34.769222259521484,
        25.42626953125,
        -35,
        1
      ],
      "name": "Box001"
    },
    {
      "mesh": 0,
      "name": "Box001_02 - Default_0"
    },
    {
      "mesh": 1,
      "name": "Box001_Material #83_0"
    },
    {
      "mesh": 2,
      "name": "Box001_03 - Default_0"
    },
    {
      "mesh": 3,
      "name": "Box001_13 - Default_0"
    }
  ],
  "samplers": [
    {
      "magFilter": 9729,
      "minFilter": 9987,
      "wrapS": 10497,
      "wrapT": 10497
    }
  ],
  "scene": 0,
  "scenes": [
    {
      "name": "OSG_Scene",
      "nodes": [
        0
      ]
    }
  ],
  "textures": [
    {
      "sampler": 0,
      "source": 0
    },
    {
      "sampler": 0,
      "source": 1
    }
  ]
}

